<svg xmlns="http://www.w3.org/2000/svg" xmlns:xlink="http://www.w3.org/1999/xlink"><defs><symbol viewBox="0 0 18 11" id="arrow"><path fill-rule="evenodd" clip-rule="evenodd" d="M9.06 7.875L1.786.582.375 1.996l8.686 8.708 8.686-8.708-1.41-1.414L9.06 7.875z" /></symbol><symbol viewBox="0 0 174.239 174.239" id="cross"><path d="M146.537 1.047a3.6 3.6 0 00-5.077 0L89.658 52.849a3.6 3.6 0 01-5.077 0L32.78 1.047a3.6 3.6 0 00-5.077 0L1.047 27.702a3.6 3.6 0 000 5.077l51.802 51.802a3.6 3.6 0 010 5.077L1.047 141.46a3.6 3.6 0 000 5.077l26.655 26.655a3.6 3.6 0 005.077 0l51.802-51.802a3.6 3.6 0 015.077 0l51.801 51.801a3.6 3.6 0 005.077 0l26.655-26.655a3.6 3.6 0 000-5.077L121.39 89.658a3.6 3.6 0 010-5.077l51.801-51.801a3.6 3.6 0 000-5.077L146.537 1.047z" /></symbol><symbol viewBox="0 0 483.3 483.3" id="envelope"><path d="M424.3 57.75H59.1c-32.6 0-59.1 26.5-59.1 59.1v249.6c0 32.6 26.5 59.1 59.1 59.1h365.1c32.6 0 59.1-26.5 59.1-59.1v-249.5c.1-32.6-26.4-59.2-59-59.2zm32.1 308.7c0 17.7-14.4 32.1-32.1 32.1H59.1c-17.7 0-32.1-14.4-32.1-32.1v-249.5c0-17.7 14.4-32.1 32.1-32.1h365.1c17.7 0 32.1 14.4 32.1 32.1v249.5h.1z" /><path d="M304.8 238.55l118.2-106c5.5-5 6-13.5 1-19.1-5-5.5-13.5-6-19.1-1l-163 146.3-31.8-28.4c-.1-.1-.2-.2-.2-.3-.7-.7-1.4-1.3-2.2-1.9L78.3 112.35c-5.6-5-14.1-4.5-19.1 1.1-5 5.6-4.5 14.1 1.1 19.1l119.6 106.9-119.1 111.5c-5.4 5.1-5.7 13.6-.6 19.1 2.7 2.8 6.3 4.3 9.9 4.3 3.3 0 6.6-1.2 9.2-3.6l120.9-113.1 32.8 29.3c2.6 2.3 5.8 3.4 9 3.4s6.5-1.2 9-3.5l33.7-30.2 120.2 114.2c2.6 2.5 6 3.7 9.3 3.7 3.6 0 7.1-1.4 9.8-4.2 5.1-5.4 4.9-14-.5-19.1l-118.7-112.7z" /></symbol><symbol viewBox="0 0 96.124 96.123" id="fb"><path d="M72.089.02L59.624 0C45.62 0 36.57 9.285 36.57 23.656v10.907H24.037a1.96 1.96 0 00-1.96 1.961v15.803a1.96 1.96 0 001.96 1.96H36.57v39.876a1.96 1.96 0 001.96 1.96h16.352a1.96 1.96 0 001.96-1.96V54.287h14.654a1.96 1.96 0 001.96-1.96l.006-15.803a1.963 1.963 0 00-1.961-1.961H56.842v-9.246c0-4.444 1.059-6.7 6.848-6.7l8.397-.003a1.96 1.96 0 001.959-1.96V1.98A1.96 1.96 0 0072.089.02z" /></symbol><symbol viewBox="0 0 475.084 475.084" id="github"><path d="M436.244 146.752c5.14-15.422 7.713-31.409 7.713-47.967 0-22.08-4.859-42.828-14.564-62.242-20.362 0-38.349 3.715-53.961 11.136-15.604 7.423-33.4 18.938-53.379 34.545-25.122-6.09-51.777-9.135-79.941-9.135-30.837 0-60.245 3.333-88.223 9.994-20.364-15.99-38.351-27.74-53.959-35.26-15.608-7.52-33.689-11.279-54.247-11.279-9.707 19.414-14.56 40.163-14.56 62.242 0 16.751 2.568 32.93 7.708 48.535C12.942 177.587 0 215.272 0 260.383c0 39.595 5.898 71.092 17.701 94.507 6.283 12.367 14.465 23.312 24.554 32.832 10.085 9.514 21.601 17.228 34.545 23.13 12.946 5.896 25.981 10.801 39.116 14.699 13.134 3.9 27.646 6.758 43.54 8.559 15.893 1.816 29.93 3.004 42.111 3.579 12.181.564 25.693.853 40.544.853 17.508 0 33.396-.432 47.678-1.283 14.277-.855 30.594-2.953 48.964-6.276 18.367-3.333 34.547-7.857 48.54-13.565 13.99-5.708 27.412-13.895 40.259-24.551 12.847-10.663 22.884-23.318 30.121-37.976 11.604-23.603 17.412-55.107 17.412-94.507-.007-45.302-12.95-83.178-38.841-113.632zm-34.249 207.703c-6.092 12.471-13.802 22.265-23.127 29.41-9.329 7.139-20.938 12.847-34.831 17.135-13.9 4.281-27.217 7.087-39.971 8.415-12.758 1.334-26.933 1.998-42.545 1.998h-47.966c-15.607 0-29.79-.664-42.541-1.998-12.752-1.328-26.075-4.134-39.971-8.415-13.891-4.288-25.5-9.996-34.829-17.135-9.329-7.146-17.037-16.939-23.128-29.41-6.09-12.471-9.136-27.076-9.136-43.824 0-22.847 6.567-42.264 19.702-58.245 13.134-15.99 30.929-23.982 53.387-23.982 8.188 0 26.746 1.997 55.677 5.995 13.513 2.093 28.456 3.14 44.823 3.14 16.372 0 31.313-1.044 44.824-3.14 29.317-3.999 47.869-5.995 55.678-5.995 22.457 0 40.252 7.996 53.386 23.982 13.135 15.988 19.698 35.398 19.698 58.245 0 16.751-3.046 31.364-9.13 43.824z" /><path d="M166.875 265.52c-5.806-6.475-12.703-9.712-20.699-9.712-7.998 0-14.896 3.241-20.701 9.712-5.802 6.468-9.897 13.703-12.275 21.689-2.383 8.002-3.571 15.804-3.571 23.422 0 7.61 1.191 15.413 3.571 23.414 2.375 7.991 6.468 15.222 12.275 21.689 5.808 6.475 12.703 9.713 20.701 9.713 7.996 0 14.896-3.244 20.699-9.713 5.804-6.468 9.897-13.698 12.275-21.689 2.38-8.001 3.571-15.804 3.571-23.414 0-7.611-1.188-15.42-3.571-23.422-2.379-7.983-6.468-15.215-12.275-21.689zM349.601 265.52c-5.804-6.475-12.703-9.712-20.697-9.712-7.991 0-14.894 3.241-20.701 9.712-5.804 6.468-9.896 13.703-12.271 21.689-2.385 8.002-3.576 15.804-3.576 23.422 0 7.61 1.191 15.413 3.576 23.414 2.375 7.991 6.468 15.222 12.271 21.689 5.808 6.475 12.71 9.713 20.701 9.713 7.994 0 14.894-3.244 20.697-9.713 5.801-6.468 9.896-13.698 12.278-21.689 2.379-8.001 3.569-15.804 3.569-23.414 0-7.611-1.19-15.42-3.569-23.422-2.381-7.983-6.477-15.215-12.278-21.689z" /></symbol><symbol viewBox="0 0 512 512" id="key"><path d="M334.974 0c-95.419 0-173.049 77.63-173.049 173.049 0 21.213 3.769 41.827 11.211 61.403L7.672 399.928a12.613 12.613 0 00-3.694 8.917v90.544c0 6.965 5.646 12.611 12.611 12.611h74.616a12.61 12.61 0 008.91-3.686l25.145-25.107a12.61 12.61 0 003.701-8.925v-30.876h30.837c6.965 0 12.611-5.646 12.611-12.611v-12.36h12.361c6.964 0 12.611-5.646 12.611-12.611v-27.136h27.136c3.344 0 6.551-1.329 8.917-3.694l40.121-40.121c19.579 7.449 40.196 11.223 61.417 11.223 95.419 0 173.049-77.63 173.049-173.049C508.022 77.63 430.393 0 334.974 0zm0 320.874c-20.642 0-40.606-4.169-59.339-12.393-4.844-2.126-10.299-.956-13.871 2.525-.039.037-.077.067-.115.106l-42.354 42.354h-34.523c-6.965 0-12.611 5.646-12.611 12.611v27.136H159.8c-6.964 0-12.611 5.646-12.611 12.611v12.36h-30.838c-6.964 0-12.611 5.646-12.611 12.611v38.257l-17.753 17.725H29.202v-17.821l154.141-154.14c4.433-4.433 4.433-11.619 0-16.051s-11.617-4.434-16.053 0L29.202 436.854V414.07l167.696-167.708c.038-.038.067-.073.102-.11 3.482-3.569 4.656-9.024 2.53-13.872-8.216-18.732-12.38-38.695-12.38-59.33 0-81.512 66.315-147.827 147.827-147.827S482.802 91.537 482.802 173.05c-.002 81.51-66.318 147.824-147.828 147.824z" /><path d="M387.638 73.144c-26.047 0-47.237 21.19-47.237 47.237s21.19 47.237 47.237 47.237 47.237-21.19 47.237-47.237-21.189-47.237-47.237-47.237zm0 69.252c-12.139 0-22.015-9.876-22.015-22.015s9.876-22.015 22.015-22.015 22.015 9.876 22.015 22.015-9.876 22.015-22.015 22.015z" /></symbol><symbol viewBox="0 0 512.092 512.092" id="link"><path d="M312.453 199.601a116.167 116.167 0 00-20.053-16.128 119.472 119.472 0 00-64.427-18.859 118.952 118.952 0 00-84.48 34.987L34.949 308.23a119.466 119.466 0 00-34.91 84.318c-.042 65.98 53.41 119.501 119.39 119.543a118.7 118.7 0 0084.395-34.816l89.6-89.6a8.534 8.534 0 00-6.059-14.592h-3.413a143.626 143.626 0 01-54.613-10.581 8.533 8.533 0 00-9.301 1.877l-64.427 64.512c-20.006 20.006-52.442 20.006-72.448 0-20.006-20.006-20.006-52.442 0-72.448l108.971-108.885c19.99-19.965 52.373-19.965 72.363 0 13.472 12.679 34.486 12.679 47.957 0a34.134 34.134 0 009.899-21.675 34.137 34.137 0 00-9.9-26.282z" /><path d="M477.061 34.993c-46.657-46.657-122.303-46.657-168.96 0l-89.515 89.429a8.533 8.533 0 00-1.792 9.387 8.532 8.532 0 008.021 5.205h3.157a143.357 143.357 0 0154.528 10.667 8.533 8.533 0 009.301-1.877l64.256-64.171c20.006-20.006 52.442-20.006 72.448 0 20.006 20.006 20.006 52.442 0 72.448l-80.043 79.957-.683.768-27.989 27.819c-19.99 19.965-52.373 19.965-72.363 0-13.472-12.679-34.486-12.679-47.957 0a34.139 34.139 0 00-9.899 21.845 34.137 34.137 0 009.899 26.283 118.447 118.447 0 0034.133 23.893c1.792.853 3.584 1.536 5.376 2.304 1.792.768 3.669 1.365 5.461 2.048a67.799 67.799 0 005.461 1.792l5.035 1.365c3.413.853 6.827 1.536 10.325 2.133 4.214.626 8.458 1.025 12.715 1.195H284.461l5.12-.597c1.877-.085 3.84-.512 6.059-.512h2.901l5.888-.853 2.731-.512 4.949-1.024h.939a119.456 119.456 0 0055.381-31.403l108.629-108.629c46.66-46.657 46.66-122.303.003-168.96z" /></symbol><symbol viewBox="0 0 612 612" id="message"><path d="M401.625 325.125h-191.25c-10.557 0-19.125 8.568-19.125 19.125s8.568 19.125 19.125 19.125h191.25c10.557 0 19.125-8.568 19.125-19.125s-8.568-19.125-19.125-19.125zm38.25-114.75h-267.75c-10.557 0-19.125 8.568-19.125 19.125s8.568 19.125 19.125 19.125h267.75c10.557 0 19.125-8.568 19.125-19.125s-8.568-19.125-19.125-19.125zM306 0C137.012 0 0 119.875 0 267.75c0 84.514 44.848 159.751 114.75 208.826V612l134.047-81.339c18.552 3.061 37.638 4.839 57.203 4.839 169.008 0 306-119.875 306-267.75S475.008 0 306 0zm0 497.25c-22.338 0-43.911-2.601-64.643-7.019l-90.041 54.123 1.205-88.701C83.5 414.133 38.25 345.513 38.25 267.75c0-126.741 119.875-229.5 267.75-229.5s267.75 102.759 267.75 229.5S453.875 497.25 306 497.25z" /></symbol><symbol viewBox="0 0 528.899 528.899" id="pencil"><path d="M328.883 89.125l107.59 107.589-272.34 272.34L56.604 361.465l272.279-272.34zm189.23-25.948l-47.981-47.981c-18.543-18.543-48.653-18.543-67.259 0l-45.961 45.961 107.59 107.59 53.611-53.611c14.382-14.383 14.382-37.577 0-51.959zM.3 512.69c-1.958 8.812 5.998 16.708 14.811 14.565l119.891-29.069L27.473 390.597.3 512.69z" /></symbol><symbol viewBox="0 0 95.333 95.332" id="quote"><path d="M30.512 43.939c-2.348-.676-4.696-1.019-6.98-1.019-3.527 0-6.47.806-8.752 1.793 2.2-8.054 7.485-21.951 18.013-23.516a2.501 2.501 0 002.04-1.799l2.301-8.23a2.5 2.5 0 00-2.068-3.15 17.477 17.477 0 00-2.354-.16c-12.637 0-25.152 13.19-30.433 32.076-3.1 11.08-4.009 27.738 3.627 38.223 4.273 5.867 10.507 9 18.529 9.313l.098.002c9.898 0 18.675-6.666 21.345-16.209a22.032 22.032 0 00-2.032-16.851c-2.875-5.105-7.61-8.826-13.334-10.473zM92.471 54.413c-2.875-5.106-7.61-8.827-13.334-10.474-2.348-.676-4.696-1.019-6.979-1.019a21.94 21.94 0 00-8.753 1.793c2.2-8.054 7.485-21.951 18.014-23.516a2.503 2.503 0 002.04-1.799l2.301-8.23a2.5 2.5 0 00-2.068-3.15 17.455 17.455 0 00-2.354-.16c-12.637 0-25.152 13.19-30.434 32.076-3.099 11.08-4.008 27.738 3.629 38.225 4.272 5.866 10.507 9 18.528 9.312l.099.002c9.897 0 18.675-6.666 21.345-16.209a22.045 22.045 0 00-2.034-16.851z" /></symbol><symbol viewBox="0 0 1000 1000" id="remove"><path d="M585.8 500l385.9-385.9c24.5-24.5 24.5-61.3 0-85.8s-61.3-24.5-85.8 0L500 414.3 114.1 28.4c-24.5-24.5-61.2-24.5-85.8 0-24.5 24.5-24.5 61.3 0 85.8L411.2 500 28.4 885.9c-24.5 24.5-24.5 61.3 0 85.8 9.2 12.3 27.6 18.4 42.9 18.4 15.3 0 30.6-6.1 42.9-18.4L500 585.8l385.9 385.9c12.3 12.3 27.6 18.4 42.9 18.4s30.6-6.1 42.9-18.4c24.5-24.5 24.5-61.3 0-85.8L585.8 500z" /></symbol><symbol viewBox="0 0 14 14" id="scroll-down"><path fill-rule="evenodd" clip-rule="evenodd" d="M12 0L6.707 5.293 1.414 0 0 1.414l6.707 6.707 6.707-6.707L12 0zm1.414 6.414L12 5l-5.293 5.293L1.414 5 0 6.414l6.707 6.707 6.707-6.707z" /></symbol><symbol viewBox="0 0 342.357 342.357" id="tick"><path d="M290.04 33.286L118.861 204.427l-66.541-66.52L0 190.226l118.862 118.845L342.357 85.606z" /></symbol><symbol viewBox="0 0 459 459" id="trash"><path d="M76.5 408c0 28.05 22.95 51 51 51h204c28.05 0 51-22.95 51-51V102h-306v306zM408 25.5h-89.25L293.25 0h-127.5l-25.5 25.5H51v51h357v-51z" /></symbol><symbol viewBox="0 0 482.9 482.9" id="user"><path d="M239.7 260.2h3.2c29.3-.5 53-10.8 70.5-30.5 38.5-43.4 32.1-117.8 31.4-124.9-2.5-53.3-27.7-78.8-48.5-90.7C280.8 5.2 262.7.4 242.5 0H240.8c-11.1 0-32.9 1.8-53.8 13.7-21 11.9-46.6 37.4-49.1 91.1-.7 7.1-7.1 81.5 31.4 124.9 17.4 19.7 41.1 30 70.4 30.5zm-75.1-152.9c0-.3.1-.6.1-.8 3.3-71.7 54.2-79.4 76-79.4H241.9c27 .6 72.9 11.6 76 79.4 0 .3 0 .6.1.8.1.7 7.1 68.7-24.7 104.5-12.6 14.2-29.4 21.2-51.5 21.4h-1c-22-.2-38.9-7.2-51.4-21.4-31.7-35.6-24.9-103.9-24.8-104.5z" /><path d="M446.8 383.6v-.3c0-.8-.1-1.6-.1-2.5-.6-19.8-1.9-66.1-45.3-80.9-.3-.1-.7-.2-1-.3-45.1-11.5-82.6-37.5-83-37.8-6.1-4.3-14.5-2.8-18.8 3.3-4.3 6.1-2.8 14.5 3.3 18.8 1.7 1.2 41.5 28.9 91.3 41.7 23.3 8.3 25.9 33.2 26.6 56 0 .9 0 1.7.1 2.5.1 9-.5 22.9-2.1 30.9-16.2 9.2-79.7 41-176.3 41-96.2 0-160.1-31.9-176.4-41.1-1.6-8-2.3-21.9-2.1-30.9 0-.8.1-1.6.1-2.5.7-22.8 3.3-47.7 26.6-56 49.8-12.8 89.6-40.6 91.3-41.7 6.1-4.3 7.6-12.7 3.3-18.8-4.3-6.1-12.7-7.6-18.8-3.3-.4.3-37.7 26.3-83 37.8-.4.1-.7.2-1 .3-43.4 14.9-44.7 61.2-45.3 80.9 0 .9 0 1.7-.1 2.5v.3c-.1 5.2-.2 31.9 5.1 45.3 1 2.6 2.8 4.8 5.2 6.3 3 2 74.9 47.8 195.2 47.8s192.2-45.9 195.2-47.8c2.3-1.5 4.2-3.7 5.2-6.3 5-13.3 4.9-40 4.8-45.2z" /></symbol></defs></svg>